<?xml version="1.0" encoding="utf-8"?>
<!-- Generator: Adobe Illustrator 22.0.1, SVG Export Plug-In . SVG Version: 6.00 Build 0)  -->
<svg version="1.1" id="Layer_1" xmlns="http://www.w3.org/2000/svg" xmlns:xlink="http://www.w3.org/1999/xlink" x="0px" y="0px"
	 viewBox="0 0 512 512" style="enable-background:new 0 0 512 512;" xml:space="preserve">
<style type="text/css">
	.st0{fill:#FFFFFF;}
	.st1{fill:none;stroke:#231F20;stroke-width:10;stroke-miterlimit:10;}
</style>
<circle class="st0" cx="256" cy="256" r="250"/>
<circle class="st1" cx="256" cy="256" r="250"/>
<path d="M256,116c-77.4,0-140,62.6-140,140c0,77.4,62.6,140,140,140c27.2,0,53.8-8,76.4-22.7c6.8-4.4,8.3-13.7,3.1-20l-5.7-7
	c-4.3-5.3-12-6.6-17.7-2.9c-16.6,10.7-36.2,16.5-56.1,16.5c-57.3,0-103.9-46.6-103.9-103.9S198.7,152.1,256,152.1
	c56.5,0,103.9,32.5,103.9,90.3c0,21.9-11.9,45-32.8,47.2c-9.8-0.3-9.5-7.3-7.6-16.9l13.2-68.4c1.6-8.4-4.8-16.1-13.3-16.1H294
	c-3.9,0-7.1,2.9-7.6,6.8l0,0.1c-8.3-10.1-22.8-12.3-33.9-12.3c-42.1,0-77.8,35.1-77.8,85.5c0,36.9,20.8,59.8,54.2,59.8
	c15.2,0,32.4-8.8,42.3-21.6c5.4,19.3,22.9,19.3,39.9,19.3c61.5,0,84.8-40.4,84.8-83.2C396,165.5,333.9,116,256,116z M243.8,287.9
	c-12.6,0-20.4-8.8-20.4-23c0-25.4,17.4-41.1,33.1-41.1c12.6,0,20.1,8.6,20.1,23C276.6,272.2,257.5,287.9,243.8,287.9L243.8,287.9z"
	/>
</svg>
