<?xml version="1.0" encoding="utf-8"?>
<!-- Generator: Adobe Illustrator 22.0.1, SVG Export Plug-In . SVG Version: 6.00 Build 0)  -->
<svg version="1.1" id="Layer_1" xmlns="http://www.w3.org/2000/svg" xmlns:xlink="http://www.w3.org/1999/xlink" x="0px" y="0px"
	 viewBox="0 0 496 512" style="enable-background:new 0 0 496 512;" xml:space="preserve">
<path d="M198.3,339.1c0,1.2-1.4,2.2-3.1,2.2c-2,0.2-3.4-0.8-3.4-2.2c0-1.2,1.4-2.2,3.1-2.2C196.8,336.7,198.3,337.7,198.3,339.1z
	 M179.5,336.4c-0.4,1.2,0.8,2.6,2.6,3c1.6,0.6,3.4,0,3.8-1.2s-0.8-2.6-2.6-3.1C181.7,334.5,180,335.1,179.5,336.4L179.5,336.4z
	 M206.3,335.3c-1.8,0.4-3,1.6-2.8,3c0.2,1.2,1.8,2,3.6,1.6c1.8-0.4,3-1.6,2.8-2.8C209.7,335.9,208,335.1,206.3,335.3z M246.1,103.6
	C162.2,103.6,98,167.2,98,251.1c0,67.1,42.2,124.5,102.5,144.7c7.7,1.4,10.5-3.4,10.5-7.3c0-3.8-0.2-24.4-0.2-37.1
	c0,0-42.3,9.1-51.2-18c0,0-6.9-17.6-16.8-22.1c0,0-13.9-9.5,1-9.3c0,0,15.1,1.2,23.3,15.6c13.2,23.3,35.4,16.6,44.1,12.6
	c1.4-9.7,5.3-16.4,9.7-20.4c-33.8-3.8-67.9-8.6-67.9-66.8c0-16.6,4.6-25,14.3-35.6c-1.6-3.9-6.7-20.1,1.6-41.1
	c12.6-3.9,41.7,16.3,41.7,16.3c12.1-3.4,25.1-5.1,38-5.1s25.9,1.8,38,5.1c0,0,29.1-20.3,41.7-16.3c8.3,21,3.1,37.1,1.6,41.1
	c9.7,10.7,15.6,19.1,15.6,35.6c0,58.4-35.6,63-69.4,66.8c5.6,4.8,10.3,13.9,10.3,28.1c0,20.4-0.2,45.6-0.2,50.6
	c0,3.9,2.8,8.7,10.5,7.3C357,375.6,398,318.2,398,251.1C398,167.2,330,103.6,246.1,103.6z M156.8,312.2c-0.8,0.6-0.6,2,0.4,3.1
	c1,1,2.4,1.4,3.1,0.6c0.8-0.6,0.6-2-0.4-3.1C159,311.8,157.6,311.4,156.8,312.2z M150.3,307.3c-0.4,0.8,0.2,1.8,1.4,2.4
	c1,0.6,2.2,0.4,2.6-0.4c0.4-0.8-0.2-1.8-1.4-2.4C151.6,306.5,150.7,306.7,150.3,307.3z M169.9,328.8c-1,0.8-0.6,2.6,0.8,3.8
	c1.4,1.4,3.1,1.6,3.9,0.6c0.8-0.8,0.4-2.6-0.8-3.8C172.5,328,170.6,327.8,169.9,328.8z M163,319.9c-1,0.6-1,2.2,0,3.6
	c1,1.4,2.6,2,3.4,1.4c1-0.8,1-2.4,0-3.8C165.5,319.7,163.9,319.1,163,319.9L163,319.9z"/>
<circle cx="248" cy="249.8" r="250"/>
</svg>
