<svg xmlns="http://www.w3.org/2000/svg" xmlns:xlink="http://www.w3.org/1999/xlink" width="1000" height="1000" viewBox="0 0 1000 1000">
  <metadata><?xpacket begin="﻿" id="W5M0MpCehiHzreSzNTczkc9d"?>
<x:xmpmeta xmlns:x="adobe:ns:meta/" x:xmptk="Adobe XMP Core 5.6-c142 79.160924, 2017/07/13-01:06:39        ">
   <rdf:RDF xmlns:rdf="http://www.w3.org/1999/02/22-rdf-syntax-ns#">
      <rdf:Description rdf:about=""/>
   </rdf:RDF>
</x:xmpmeta>
                                                                                                    
                                                                                                    
                                                                                                    
                                                                                                    
                                                                                                    
                                                                                                    
                                                                                                    
                                                                                                    
                                                                                                    
                                                                                                    
                                                                                                    
                                                                                                    
                                                                                                    
                                                                                                    
                                                                                                    
                                                                                                    
                                                                                                    
                                                                                                    
                                                                                                    
                                                                                                    
                           
<?xpacket end="w"?></metadata>
<defs>
    <style>
      .cls-1 {
        fill: #fff;
        fill-rule: evenodd;
      }
      .cls-2 {
        fill: url(#linear-gradient);
      }
    </style>
    <linearGradient id="linear-gradient" x1="1000" y1="788.675" x2="0" y2="211.325" gradientUnits="userSpaceOnUse">
      <stop offset="0" stop-color="#d4145a"/>
      <stop offset="1" stop-color="#fbb03b"/>
    </linearGradient>
  </defs>
  <circle class="cls-1" cx="500" cy="500" r="500"/>
  <path id="lf" class="cls-2" d="M450.758,212.1h-86.8l-86.1,406.7q-4.2,21-4.2,37.1,0,31.5,15.827,43.05t46.069,11.55a237.173,237.173,0,0,0,47.119-4.846q23.919-4.872,36.575-12.479l2.11-61.775a91.03,91.03,0,0,1-37.1,7.7q-10.5,0-15.05-9.811t-0.35-30.155ZM679.65,423.5l14-71.4h-70l4.2-23.308q4.2-28.251,14.35-41.672t32.55-13.42a249.768,249.768,0,0,1,32.9,2.242,130.081,130.081,0,0,1,32.9,8.958l20.3-63.7a141.919,141.919,0,0,0-23.723-8.4q-13.257-3.5-27.213-5.95a284.407,284.407,0,0,0-28.262-3.5q-14.307-1.05-25.463-1.05-27.217,0-45.708,6.3a79.984,79.984,0,0,0-31.39,19.25q-12.912,12.96-20.585,32.2-7.677,19.26-12.556,45.15l-9.1,46.9h-44.8l-15.4,71.4h49l-44.1,271.753q-6.3,39.818-18.55,57.641-12.255,17.8-34.65,17.806-18.195,0-30.1-1.138a107.327,107.327,0,0,1-23.8-5.162l-23.8,63.7q17.457,11.894,41.508,15.75a312.033,312.033,0,0,0,49.186,3.85q30.7,0,51.625-9.461a94.808,94.808,0,0,0,34.54-25.944,123.87,123.87,0,0,0,21.274-38.566A284.73,284.73,0,0,0,560.65,725.7l51.8-302.2h67.2Z"/>
</svg>
